<?xml version="1.0" standalone="no"?>
<!DOCTYPE svg PUBLIC "-//W3C//DTD SVG 20010904//EN"
 "http://www.w3.org/TR/2001/REC-SVG-20010904/DTD/svg10.dtd">
<svg version="1.0" xmlns="http://www.w3.org/2000/svg"
 width="500.000000pt" height="500.000000pt" viewBox="0 0 500.000000 500.000000"
 preserveAspectRatio="xMidYMid meet">
<metadata>
Created by potrace 1.11, written by Peter Selinger 2001-2013
</metadata>
<g transform="translate(0.000000,500.000000) scale(0.100000,-0.100000)"
fill="#000000" stroke="none">
<path d="M1835 4727 c-53 -30 -74 -56 -86 -103 -7 -27 -20 -65 -31 -84 -10
-19 -18 -43 -18 -53 0 -15 -36 -154 -55 -215 -3 -9 -17 -7 -57 8 -29 12 -79
30 -112 41 -32 11 -69 27 -81 35 -14 9 -39 14 -62 12 -38 -3 -38 -3 -46 -58
-4 -30 -5 -84 0 -120 4 -36 6 -72 5 -80 -1 -8 3 -46 10 -83 7 -43 8 -71 2 -77
-6 -6 -29 -3 -62 9 -28 11 -74 22 -102 26 -27 4 -52 11 -56 16 -3 5 -35 9 -72
8 -93 -1 -146 -29 -150 -81 -4 -45 22 -97 78 -156 45 -48 50 -65 18 -57 -13 3
-48 -3 -78 -13 -44 -15 -56 -24 -58 -43 -2 -13 -8 -29 -14 -36 -12 -15 6 -50
39 -76 12 -10 44 -40 69 -67 25 -27 61 -56 79 -64 33 -16 61 -43 53 -51 -2 -3
-25 9 -50 25 -74 49 -226 67 -266 31 -25 -21 -30 -75 -8 -88 7 -4 23 -29 35
-55 11 -26 25 -50 31 -53 5 -3 10 -11 10 -16 0 -13 -44 -1 -105 28 -32 15 -77
26 -126 30 -86 6 -119 -5 -119 -41 0 -29 52 -131 82 -160 32 -31 108 -123 108
-131 0 -3 23 -27 51 -53 88 -83 129 -124 129 -131 -1 -3 -26 -22 -57 -41 -31
-19 -64 -42 -73 -50 -9 -8 -43 -29 -75 -46 -32 -18 -65 -43 -74 -58 -14 -24
-14 -27 9 -51 13 -14 28 -25 33 -25 5 0 18 -11 28 -24 11 -14 41 -32 67 -42
26 -10 68 -32 93 -50 25 -17 56 -35 70 -39 22 -7 38 -22 39 -36 0 -3 -29 -37
-65 -74 -36 -38 -65 -72 -65 -75 0 -3 -22 -29 -50 -59 -27 -30 -50 -58 -50
-63 0 -5 -11 -24 -25 -42 -14 -18 -25 -37 -25 -42 0 -5 -11 -22 -25 -38 -14
-16 -30 -47 -37 -68 -10 -33 -9 -41 7 -58 29 -32 81 -28 279 24 54 14 103 26
109 26 5 0 -18 -28 -51 -62 -34 -35 -82 -88 -108 -118 -45 -54 -46 -56 -40
-110 4 -30 12 -58 19 -62 19 -13 121 0 172 22 87 37 96 25 30 -40 -25 -24 -45
-50 -45 -57 0 -8 -11 -19 -25 -25 -14 -6 -25 -15 -25 -20 0 -4 -6 -8 -12 -9
-21 -1 -70 -67 -78 -105 -11 -49 -4 -62 36 -70 19 -3 34 -11 34 -17 0 -6 25
-8 72 -3 l71 6 -25 -19 c-38 -30 -63 -94 -52 -132 17 -59 45 -70 185 -72 114
-2 190 7 304 34 22 6 44 11 49 12 12 3 36 -78 41 -143 7 -81 29 -151 53 -171
12 -9 22 -22 22 -28 0 -37 113 -11 159 36 56 58 161 133 186 133 8 0 17 -12
20 -27 4 -16 12 -50 20 -78 7 -27 17 -77 20 -110 4 -37 19 -85 40 -125 18 -36
39 -82 48 -102 19 -43 53 -54 80 -24 9 10 17 24 17 29 0 6 10 24 23 41 19 26
44 92 73 199 11 37 22 14 26 -55 2 -42 11 -86 20 -103 9 -16 24 -46 33 -66 26
-57 95 -87 128 -55 8 8 23 42 33 75 10 34 21 61 26 61 4 0 12 -19 19 -42 6
-24 24 -58 40 -76 16 -18 29 -37 29 -43 0 -5 16 -17 35 -24 51 -22 75 -8 104
62 63 151 72 168 83 149 7 -12 6 -26 -2 -46 -24 -57 75 -229 111 -193 7 7 24
10 38 7 18 -4 34 1 48 13 25 21 93 151 93 177 0 10 6 30 14 44 8 15 21 50 29
77 15 47 39 115 44 124 3 5 130 -76 178 -113 21 -17 46 -35 55 -41 9 -5 32
-20 51 -32 19 -13 37 -23 41 -23 11 0 37 59 29 65 -5 2 -11 35 -14 72 -3 38
-13 111 -21 163 -19 115 -21 236 -4 246 17 11 109 7 121 -5 6 -6 43 -11 83
-11 39 0 86 -5 105 -12 48 -17 190 -16 222 1 24 13 42 44 37 66 -1 6 -2 30 -1
55 2 41 -2 48 -40 80 -23 19 -60 52 -83 72 -22 21 -45 38 -51 38 -5 0 -23 14
-39 30 -16 17 -33 30 -38 30 -5 0 -20 11 -34 24 -29 26 -19 42 18 27 43 -18
209 -34 221 -22 6 6 18 11 27 11 22 0 62 73 53 96 -8 22 -141 154 -154 154 -5
0 -18 9 -29 20 -11 11 -26 20 -33 20 -8 0 -36 11 -63 25 l-49 25 46 0 c25 0
50 -5 55 -10 17 -17 222 -24 274 -10 51 14 110 69 110 104 0 26 -46 101 -84
135 -14 14 -26 28 -26 33 0 4 29 8 65 8 35 0 77 5 92 11 126 51 158 86 154
172 -1 20 -6 27 -21 27 -11 0 -23 7 -27 15 -7 20 -59 46 -148 75 -77 25 -181
75 -191 92 -8 13 143 156 173 164 12 3 25 15 28 25 4 10 15 24 26 29 20 11 26
45 9 55 -5 3 -10 15 -10 26 0 15 -7 19 -35 19 -20 0 -43 8 -53 18 -9 9 -48 35
-85 57 -37 21 -67 42 -67 45 0 4 16 21 35 38 19 18 42 43 51 57 9 14 22 25 28
25 7 0 48 36 92 79 67 66 83 89 102 143 34 97 29 129 -22 153 -42 20 -135 8
-225 -29 -36 -14 -69 -26 -74 -26 -16 0 2 62 29 101 16 23 26 52 27 79 1 36
-3 46 -28 66 -21 16 -33 20 -42 13 -6 -6 -22 -10 -35 -8 -22 2 -35 -1 -86 -22
-32 -13 -35 -12 -27 9 16 40 24 138 14 174 -12 47 -35 61 -79 48 -46 -13 -55
-3 -25 27 35 36 63 103 76 182 13 81 5 127 -24 146 -19 12 -29 12 -67 1 -25
-8 -65 -23 -90 -35 -25 -11 -59 -21 -76 -21 -16 0 -52 -14 -80 -31 -53 -34
-215 -112 -220 -106 -8 8 -24 202 -18 220 9 27 -5 87 -20 87 -17 0 -64 -25
-179 -94 -54 -32 -100 -56 -103 -53 -3 3 -8 54 -10 112 -7 156 -43 299 -85
336 -33 28 -73 32 -111 12 -42 -23 -100 -87 -122 -133 -8 -19 -20 -42 -25 -50
-5 -8 -15 -28 -21 -45 l-13 -30 -8 35 c-5 19 -10 73 -12 120 -4 100 -19 137
-58 145 -35 8 -94 -19 -112 -50 -6 -13 -28 -50 -47 -82 l-35 -58 -7 54 c-10
65 -61 177 -89 192 -29 15 -70 -2 -118 -48 -41 -40 -91 -130 -84 -150 3 -7 0
-13 -5 -13 -6 0 -13 15 -17 33 -3 17 -10 41 -15 52 -5 11 -11 36 -15 55 -3 19
-15 51 -25 70 -11 19 -24 47 -30 62 -6 14 -26 33 -45 42 -37 18 -33 18 -60 3z
m51 -82 c19 -21 53 -105 84 -210 4 -16 11 -99 15 -182 8 -180 6 -184 -77 -130
-29 19 -86 51 -126 72 l-73 38 6 56 c6 54 30 135 83 286 37 104 48 113 88 70z
m308 -160 c14 -14 29 -38 32 -53 4 -15 15 -43 25 -63 16 -32 18 -58 14 -224
-2 -103 -7 -191 -12 -196 -4 -4 -27 6 -51 22 -23 16 -46 29 -50 29 -4 0 -22
13 -41 29 l-34 28 0 94 c0 96 20 239 34 239 4 0 11 15 14 33 8 33 32 87 40 87
2 0 15 -11 29 -25z m674 -82 c56 -72 60 -95 53 -290 l-4 -92 -111 -54 c-121
-60 -156 -73 -157 -60 -12 122 21 347 62 425 5 10 9 23 9 28 0 19 74 80 97 80
13 0 33 -15 51 -37z m-356 -19 c25 -57 37 -185 38 -390 l0 -151 -39 -13 c-33
-10 -43 -10 -67 3 -16 8 -42 21 -58 28 -45 22 -56 46 -46 104 5 28 13 82 18
120 6 39 19 108 31 154 12 46 19 92 16 101 -6 19 50 88 73 89 7 1 22 -20 34
-45z m-1042 -130 c88 -32 128 -51 265 -123 28 -15 77 -38 110 -51 99 -41 120
-54 123 -75 8 -58 13 -67 30 -60 38 15 115 7 152 -16 8 -5 36 -19 62 -30 26
-12 50 -30 53 -40 4 -12 16 -19 31 -19 13 0 24 -4 24 -8 0 -5 16 -16 35 -25
19 -9 35 -22 35 -28 0 -14 -47 -59 -60 -59 -6 0 -31 -15 -57 -34 -56 -39 -104
-66 -271 -152 -68 -35 -135 -73 -149 -84 -14 -11 -31 -20 -37 -20 -6 0 -27
-13 -46 -28 -19 -16 -53 -39 -75 -52 -22 -13 -44 -30 -48 -37 -4 -7 -13 -13
-19 -13 -7 0 -32 -17 -57 -38 -25 -21 -58 -45 -73 -55 -16 -9 -40 -25 -54 -34
l-26 -17 3 30 c2 16 -1 35 -6 43 -4 8 -10 80 -11 160 -1 80 -3 162 -3 181 -1
19 0 52 2 73 2 21 0 64 -5 95 -4 31 -10 95 -12 142 -2 47 -11 126 -20 175 -16
93 -21 217 -9 228 10 10 10 10 113 -29z m1759 -191 c-1 -35 29 -256 41 -303 5
-20 12 -127 15 -238 l6 -203 -33 17 c-18 9 -51 28 -73 42 -22 14 -65 38 -95
54 -55 28 -141 80 -280 168 -41 26 -92 56 -113 66 -22 9 -41 23 -44 31 -3 7
-13 13 -22 13 -19 1 -51 23 -51 37 0 11 11 17 120 66 41 19 105 48 141 66 36
17 78 31 92 31 14 0 32 7 39 16 34 42 66 66 125 96 35 18 79 41 96 50 18 9 33
17 35 18 1 0 2 -12 1 -27z m569 -95 c18 -18 15 -69 -6 -103 -41 -66 -243 -255
-274 -255 -7 0 -26 -13 -43 -28 -16 -15 -46 -40 -66 -55 -39 -30 -49 -24 -49
27 0 12 -5 27 -10 32 -6 6 -12 51 -14 101 l-3 90 45 39 c25 21 62 54 82 72 21
17 42 32 47 32 12 0 76 31 83 40 10 14 37 18 116 19 50 1 85 -4 92 -11z
m-2534 -86 c47 -26 48 -29 51 -77 2 -28 4 -55 5 -60 7 -35 -2 -175 -11 -175
-5 0 -27 13 -47 30 -20 16 -58 38 -84 50 -26 11 -56 32 -68 47 -11 15 -34 34
-49 44 -51 31 -102 89 -99 112 5 33 76 56 173 56 69 0 87 -3 129 -27z m1274
-190 c15 -11 52 -32 82 -48 30 -15 73 -42 95 -59 21 -16 49 -35 61 -41 12 -7
57 -38 100 -70 42 -33 86 -66 98 -74 12 -8 37 -26 56 -41 19 -14 52 -29 73
-33 20 -4 37 -11 37 -16 0 -5 21 -21 48 -34 26 -13 62 -37 80 -53 l33 -29 4
-119 c3 -66 7 -149 10 -185 6 -65 9 -92 20 -230 12 -139 13 -155 24 -315 6
-88 15 -191 19 -229 13 -101 -4 -226 -29 -226 -11 0 -88 -63 -217 -177 -21
-18 -41 -33 -46 -33 -5 0 -18 -7 -28 -17 -10 -9 -27 -21 -37 -27 -10 -6 -58
-38 -106 -71 -48 -33 -108 -74 -134 -91 -25 -17 -52 -38 -60 -47 -7 -10 -22
-17 -32 -17 -10 0 -20 -4 -24 -9 -3 -6 -31 -24 -63 -42 -31 -18 -77 -48 -101
-66 -24 -18 -49 -33 -56 -33 -7 0 -26 13 -43 30 -17 16 -51 39 -75 50 -24 12
-59 39 -77 60 -19 22 -41 40 -51 40 -9 0 -20 7 -23 15 -3 9 -19 21 -36 26 -16
6 -30 15 -30 20 0 5 -19 21 -42 35 -24 15 -45 30 -48 33 -15 19 -109 89 -133
99 -15 6 -30 19 -33 27 -4 9 -19 22 -35 31 -16 8 -29 20 -29 27 0 6 -15 22
-33 34 -17 13 -44 33 -60 45 -15 13 -45 37 -68 53 -22 17 -54 42 -72 56 -18
15 -51 37 -75 49 -23 12 -44 25 -46 29 -5 7 -16 452 -20 786 -1 83 -5 155 -9
161 -14 23 32 114 58 114 3 0 16 9 28 21 12 11 40 30 61 41 21 11 44 24 50 29
24 22 213 141 241 153 17 7 43 25 58 40 15 14 32 26 38 26 5 0 55 32 110 70
55 39 102 70 105 70 6 0 86 53 152 100 23 16 47 30 53 30 5 0 21 7 35 16 23
15 70 31 102 33 8 1 26 -7 40 -17z m-1618 -38 c0 -8 -4 -12 -10 -9 -5 3 -10
10 -10 16 0 5 5 9 10 9 6 0 10 -7 10 -16z m2900 -54 l21 -21 -33 -45 c-41 -57
-137 -145 -286 -261 l-54 -43 -40 23 c-45 25 -44 23 -52 94 -5 51 -5 51 37 80
22 15 60 47 84 71 23 23 48 42 56 42 7 0 35 11 63 24 59 29 131 53 162 55 12
0 31 -8 42 -19z m-2795 -26 c98 -16 245 -55 275 -74 15 -9 41 -190 32 -217 -6
-20 -34 -15 -74 12 -20 14 -40 25 -43 25 -4 0 -31 20 -62 45 -30 25 -61 45
-69 45 -8 0 -19 10 -25 23 -6 12 -42 48 -80 80 -63 53 -82 77 -61 77 4 0 52
-7 107 -16z m2970 -136 c42 -36 33 -63 -42 -132 -213 -196 -239 -217 -266
-207 -14 5 -28 15 -32 20 -3 6 -14 11 -23 11 -22 1 -62 34 -62 52 0 7 14 24
31 38 17 14 50 42 72 64 52 49 191 128 265 151 12 3 22 11 22 16 0 14 7 11 35
-13z m-3124 -94 c39 -20 237 -84 260 -84 10 0 20 -4 24 -9 3 -5 20 -13 38 -16
17 -4 43 -13 57 -20 14 -7 40 -19 58 -25 29 -11 32 -16 32 -56 0 -46 -2 -49
-69 -101 -29 -24 -35 -25 -55 -13 -21 14 -74 40 -151 76 -22 10 -44 24 -48 31
-4 7 -43 40 -86 72 -88 67 -131 114 -131 142 0 24 29 25 71 3z m3413 -120 c9
-3 16 -16 16 -27 0 -27 -60 -117 -78 -117 -7 0 -15 -7 -19 -15 -3 -9 -18 -22
-32 -30 -15 -7 -54 -39 -86 -69 -32 -31 -65 -56 -73 -56 -8 0 -20 -7 -26 -16
-10 -13 -16 -12 -46 10 -19 14 -48 32 -65 40 -16 8 -42 28 -57 45 l-26 31 26
27 c44 46 102 80 192 113 47 17 89 35 95 41 5 5 23 9 40 10 16 0 39 4 50 9 24
10 67 12 89 4z m-3624 -68 c134 -48 200 -73 245 -91 17 -7 46 -18 65 -25 48
-18 171 -100 165 -110 -3 -4 -33 -22 -67 -39 -35 -17 -85 -45 -113 -61 -27
-16 -57 -29 -65 -29 -21 -1 -62 34 -183 154 -116 116 -157 169 -157 202 0 30
24 30 110 -1z m2752 -36 c9 0 27 -9 42 -21 15 -11 33 -18 42 -15 19 7 72 -20
149 -76 33 -24 112 -78 176 -121 68 -45 119 -85 122 -97 4 -14 13 -20 33 -20
27 0 88 -35 126 -72 10 -10 29 -20 43 -24 21 -5 45 -30 45 -47 0 -3 -30 -30
-67 -60 -89 -72 -173 -151 -174 -163 0 -11 -87 -84 -219 -184 -18 -14 -47 -37
-65 -52 -18 -16 -38 -28 -45 -28 -6 0 -40 -29 -75 -65 -34 -36 -69 -65 -78
-65 -11 0 -17 13 -21 43 -22 186 -27 233 -31 317 -2 53 -7 103 -11 113 -3 9
-2 23 4 30 6 7 7 29 2 57 -4 25 -8 86 -9 135 0 50 -7 164 -16 255 -18 202 -18
200 -1 178 7 -10 20 -18 28 -18z m-2068 -158 c3 -5 7 -116 10 -248 3 -131 8
-332 12 -446 4 -153 3 -208 -6 -208 -6 0 -27 16 -47 35 -20 19 -41 35 -47 35
-6 0 -31 14 -55 30 -24 17 -51 30 -59 30 -8 0 -26 12 -41 26 -14 14 -50 44
-79 65 -38 29 -51 45 -47 58 4 14 -2 18 -36 20 -23 1 -58 13 -80 26 -21 14
-41 25 -44 25 -15 0 -145 103 -145 115 0 7 24 28 53 45 72 43 88 52 122 75 46
31 69 44 88 51 9 3 17 10 17 15 0 5 10 14 23 19 56 25 110 64 198 144 14 13
35 27 47 30 12 4 22 12 22 17 0 5 12 9 26 9 17 0 28 6 31 20 5 20 27 27 37 12z
m2761 -668 c39 -9 79 -20 90 -25 11 -4 45 -15 75 -24 49 -15 130 -75 130 -96
0 -4 -30 -22 -67 -40 -61 -30 -76 -34 -148 -33 -104 1 -188 10 -212 22 -10 6
-36 13 -58 17 -44 8 -72 21 -93 41 -16 17 9 52 73 104 24 19 44 40 44 47 1 15
70 10 166 -13z m-3098 -87 c25 -21 83 -60 165 -110 19 -12 25 -22 21 -35 -10
-24 -29 -42 -46 -42 -8 0 -18 -7 -21 -15 -3 -9 -23 -23 -43 -32 -21 -8 -66
-28 -100 -44 -34 -16 -69 -29 -78 -29 -8 0 -15 -4 -15 -10 0 -11 -178 -67
-225 -72 -43 -3 -58 8 -44 35 13 25 92 129 123 161 12 12 39 42 61 66 48 53
156 150 166 150 4 0 20 -10 36 -23z m2793 -194 c41 -14 79 -29 85 -34 5 -5 14
-9 21 -9 6 0 29 -8 50 -17 22 -9 41 -17 44 -18 3 -1 18 -7 33 -13 16 -7 33
-10 38 -6 5 3 9 0 9 -5 0 -6 5 -11 12 -11 14 0 88 -70 88 -83 0 -21 -74 -39
-129 -31 -31 4 -76 8 -101 9 -25 2 -76 10 -115 18 -38 9 -95 21 -125 28 -86
17 -190 52 -190 62 0 6 9 19 20 31 10 12 38 42 62 68 40 45 45 48 83 42 21 -3
73 -16 115 -31z m-2494 -9 c21 -15 45 -36 53 -47 15 -21 27 -147 17 -174 -6
-14 -8 -14 -25 1 -17 15 -21 15 -59 -5 -22 -12 -57 -42 -78 -65 -20 -24 -43
-44 -50 -44 -7 0 -14 -3 -16 -7 -4 -11 -86 -63 -97 -63 -6 0 -15 -8 -20 -19
-6 -10 -25 -21 -43 -24 -18 -3 -63 -12 -100 -20 -38 -7 -68 -11 -68 -7 0 20
34 68 96 137 38 41 76 87 85 102 9 14 66 74 128 133 61 59 111 112 111 118 0
17 25 11 66 -16z m197 -154 c25 -16 50 -30 56 -30 6 0 11 -6 11 -13 0 -13 124
-117 182 -151 52 -31 92 -59 103 -73 6 -6 52 -40 104 -75 52 -35 129 -87 170
-116 42 -29 86 -59 99 -67 64 -43 78 -52 111 -71 43 -26 49 -40 19 -47 -13 -4
-32 -14 -43 -24 -11 -10 -54 -41 -95 -68 -41 -26 -92 -60 -114 -74 -21 -14
-47 -30 -57 -36 -10 -5 -62 -40 -116 -76 -120 -81 -137 -90 -157 -83 -9 3 -20
-3 -28 -15 -7 -12 -17 -21 -22 -21 -6 0 -40 -20 -77 -45 -37 -25 -72 -45 -77
-45 -6 0 -10 17 -10 38 0 20 -9 78 -21 127 -11 50 -25 140 -31 200 -6 61 -15
151 -20 200 -5 50 -14 126 -19 170 -10 82 -16 157 -27 328 -5 67 -4 97 4 97 6
0 31 -13 55 -30z m1891 -70 c3 -17 2 -40 -3 -53 -8 -20 -7 -58 4 -202 2 -27 7
-62 10 -77 5 -18 3 -28 -4 -28 -7 0 -9 -43 -4 -147 7 -171 7 -181 4 -248 -2
-27 0 -90 4 -140 7 -98 7 -197 0 -204 -3 -2 -26 7 -52 21 -27 14 -59 29 -73
33 -14 4 -39 18 -56 31 -17 12 -43 26 -58 30 -14 3 -40 19 -56 34 -16 15 -62
46 -102 70 -96 56 -108 68 -108 102 0 35 -22 46 -56 28 -22 -12 -31 -9 -106
37 -46 28 -99 58 -118 68 -35 18 -90 71 -90 87 0 5 12 13 28 19 15 6 36 19 47
29 11 10 52 35 90 55 39 20 93 55 122 76 29 21 56 39 61 39 5 0 15 7 22 15 6
8 37 31 68 51 32 21 59 40 62 44 3 3 23 19 45 35 22 16 45 34 50 39 6 6 29 23
52 38 47 31 93 74 93 88 0 6 9 10 19 10 11 0 33 11 48 25 37 32 49 31 57 -5z
m147 -6 c49 -14 109 -40 149 -64 8 -5 33 -17 55 -27 21 -9 47 -25 57 -35 10
-10 25 -18 33 -18 19 0 95 -40 117 -62 9 -9 24 -30 32 -47 19 -37 10 -41 -59
-28 -27 5 -78 11 -113 12 -35 2 -102 8 -150 15 -48 6 -106 13 -129 16 -52 6
-54 12 -68 202 -5 60 -5 60 76 36z m-2144 -190 c3 -54 6 -110 6 -124 1 -14 6
-28 11 -31 17 -13 -2 -35 -43 -49 -22 -7 -48 -21 -57 -32 -10 -10 -25 -18 -35
-18 -10 0 -21 -4 -24 -10 -3 -5 -14 -10 -24 -10 -10 0 -32 -7 -47 -15 -16 -8
-36 -15 -44 -15 -9 0 -24 -6 -35 -14 -11 -7 -36 -17 -55 -21 -19 -4 -53 -16
-75 -27 -32 -16 -46 -17 -67 -9 -26 10 -27 12 -16 38 7 15 15 30 18 33 14 13
80 109 80 116 0 19 157 164 177 164 6 0 18 6 25 13 15 14 115 84 156 108 15 9
31 13 35 9 4 -4 11 -52 14 -106z m2200 -171 c43 -14 80 -29 83 -33 3 -4 24
-17 47 -29 23 -11 44 -25 48 -31 3 -5 14 -10 23 -10 9 0 31 -14 47 -30 17 -17
36 -36 44 -43 50 -44 91 -90 91 -102 0 -9 -10 -15 -26 -15 -14 0 -34 -4 -44
-10 -19 -10 -193 11 -227 28 -33 16 -131 35 -153 29 -12 -3 -23 0 -25 6 -2 7
-6 69 -8 140 -4 103 -2 127 9 127 8 0 49 -12 91 -27z m-2161 -239 c5 -64 7
-119 4 -123 -3 -3 -20 -8 -39 -10 -18 -1 -52 -9 -75 -17 -47 -17 -252 -45
-275 -37 -62 19 -71 26 -71 52 0 39 83 108 179 149 42 18 85 36 96 41 11 6 36
16 55 24 19 8 46 19 60 25 54 23 56 21 66 -104z m1008 -96 c4 -40 3 -107 -2
-148 -7 -55 -5 -83 4 -106 38 -90 12 -380 -37 -410 -15 -9 -49 26 -49 50 0 12
-7 35 -16 51 -8 17 -19 62 -23 101 -5 39 -13 79 -19 90 -9 18 -24 191 -24 280
0 21 -5 45 -10 52 -8 9 -3 18 18 35 35 27 125 76 141 77 7 0 14 -27 17 -72z
m205 -34 c29 -24 58 -44 63 -44 10 0 88 -58 101 -75 9 -12 -1 -58 -15 -66 -7
-4 -7 -13 1 -26 12 -23 2 -117 -24 -228 -17 -74 -102 -257 -122 -263 -25 -7
-74 155 -69 227 2 24 -1 59 -6 78 -9 33 5 343 18 385 4 13 -2 21 -20 28 -14 5
-26 16 -26 23 0 8 -11 19 -25 25 -14 6 -25 17 -25 23 0 15 82 -34 149 -87z
m1001 46 c0 -5 -4 -10 -9 -10 -6 0 -13 5 -16 10 -3 6 1 10 9 10 9 0 16 -4 16
-10z m-1451 -106 c-8 -22 -8 -49 1 -111 16 -101 2 -225 -36 -328 -33 -86 -47
-104 -68 -85 -9 7 -16 22 -16 34 0 12 -7 31 -15 43 -24 35 -58 182 -61 266
l-3 77 70 48 c39 26 82 54 97 62 15 8 29 19 31 23 1 5 5 6 7 4 3 -2 -1 -17 -7
-33z m310 -124 c1 -20 -1 -22 -9 -10 -5 8 -9 29 -9 45 0 26 2 27 9 10 5 -11 9
-31 9 -45z m468 -33 c138 -77 165 -97 158 -115 -4 -9 -10 -37 -12 -61 -3 -25
-13 -56 -24 -69 -10 -14 -19 -35 -19 -47 0 -12 -9 -34 -20 -48 -11 -14 -20
-31 -20 -39 0 -7 -9 -28 -20 -46 -11 -18 -20 -39 -20 -47 0 -15 -37 -45 -55
-45 -21 0 -50 66 -56 125 -4 33 -2 118 3 189 7 90 6 132 -1 139 -15 15 -11
107 5 107 2 0 39 -19 81 -43z"/>
<path d="M1566 3955 c-10 -8 -22 -12 -26 -10 -4 3 -13 -2 -20 -10 -10 -12 -9
-31 4 -96 9 -45 14 -84 12 -86 -8 -9 67 -178 90 -202 22 -24 24 -24 30 -5 10
26 51 61 98 82 141 63 201 98 201 117 0 11 4 26 8 33 10 14 -17 62 -34 62 -6
0 -40 13 -76 30 -35 16 -76 33 -91 36 -15 4 -34 12 -42 19 -41 32 -128 50
-154 30z m80 -70 c4 -8 10 -15 14 -15 5 0 36 -18 70 -41 47 -31 68 -39 87 -34
26 6 53 -9 53 -29 -1 -15 -173 -86 -209 -86 -24 0 -31 6 -40 31 -6 18 -11 41
-11 51 0 11 -9 40 -21 65 -11 25 -18 51 -15 59 7 19 65 18 72 -1z"/>
<path d="M3054 3793 c-12 -19 -106 -58 -166 -68 -63 -10 -58 -52 9 -80 18 -8
33 -18 33 -24 0 -14 141 -106 165 -107 11 -1 27 -4 36 -8 12 -5 18 -1 22 16 8
33 11 153 4 165 -3 5 1 29 9 53 9 24 11 47 6 52 -5 5 -31 11 -58 14 -41 5 -51
3 -60 -13z m44 -103 c5 -45 -5 -80 -23 -80 -14 0 -78 33 -102 52 -17 14 -16
28 1 28 8 0 33 9 57 20 55 24 63 22 67 -20z"/>
<path d="M2104 3301 c-57 -19 -101 -48 -157 -100 -51 -47 -67 -79 -71 -144 -5
-63 20 -187 40 -203 27 -21 17 -44 -19 -44 -26 0 -44 -10 -83 -47 -55 -53 -81
-89 -85 -119 -4 -36 37 -178 57 -195 8 -6 14 -16 14 -22 0 -21 46 -77 73 -88
29 -12 37 -46 13 -55 -7 -3 -29 -34 -47 -70 -19 -35 -40 -74 -46 -87 -16 -28
-16 -54 -2 -114 19 -77 50 -130 107 -180 54 -48 130 -82 185 -83 35 0 165 61
228 106 26 19 49 34 52 34 3 0 7 -10 11 -23 3 -12 30 -48 59 -80 96 -100 215
-135 304 -87 49 26 168 133 187 168 66 118 66 150 3 230 -26 33 -47 65 -47 70
0 6 24 16 53 22 28 7 67 19 85 26 48 19 132 112 132 144 0 14 5 31 12 38 40
40 -90 269 -180 316 -35 18 -139 53 -171 58 -22 3 -16 9 47 57 40 30 72 61 72
68 0 7 4 13 8 13 13 0 52 85 59 125 3 20 10 38 14 41 5 3 9 18 9 34 0 23 -7
33 -32 46 -18 9 -43 26 -56 37 -34 31 -88 46 -188 53 -111 8 -166 -7 -274 -70
l-75 -44 -26 58 c-30 66 -72 101 -142 118 -58 15 -60 15 -123 -7z m132 -92
c60 -15 78 -43 70 -106 -8 -55 -35 -125 -46 -118 -5 3 -8 28 -8 55 -1 69 -8
86 -42 100 -68 28 -150 -4 -186 -72 -20 -39 -17 -61 10 -87 31 -29 71 -21 62
12 -5 21 28 87 44 87 26 0 53 -59 47 -104 -1 -10 6 -23 15 -29 13 -9 21 -7 37
7 29 26 26 12 -9 -51 -42 -74 -37 -113 15 -113 21 0 29 11 54 75 19 47 74 124
94 130 9 4 17 10 17 15 0 4 26 35 58 69 61 65 85 75 207 87 28 2 56 7 63 9 23
8 111 -14 147 -37 37 -25 44 -42 20 -55 -12 -7 -13 -14 -3 -40 22 -60 -38
-143 -150 -203 -30 -16 -61 -30 -67 -30 -6 0 -30 -9 -53 -20 -22 -11 -50 -20
-61 -20 -11 0 -31 -4 -46 -10 -14 -5 -47 -12 -73 -14 -35 -4 -53 -12 -71 -32
-22 -26 -22 -28 -5 -41 10 -7 26 -13 36 -13 10 0 27 -5 38 -12 15 -10 31 -8
82 10 82 28 199 46 269 39 102 -9 247 -103 235 -152 -3 -11 3 -34 14 -50 28
-42 35 -106 17 -141 -28 -54 -59 -73 -124 -80 -79 -9 -125 1 -162 32 -33 28
-150 87 -192 97 -19 5 -34 1 -49 -11 l-23 -19 23 -21 c13 -12 27 -22 32 -22 9
0 141 -110 146 -122 2 -4 9 -8 15 -8 21 0 106 -101 117 -138 26 -96 0 -187
-73 -254 -68 -63 -105 -71 -192 -41 -59 21 -148 104 -171 159 -13 31 -14 45
-4 79 24 86 -5 151 -49 111 -15 -14 -21 -31 -21 -61 0 -49 -26 -119 -40 -110
-6 4 -13 -1 -16 -9 -3 -8 -35 -25 -71 -37 -112 -37 -229 -13 -305 63 -24 24
-58 91 -58 114 0 21 48 94 61 94 8 0 10 12 6 34 -4 27 -1 38 16 53 40 36 82
46 171 40 98 -6 123 4 112 46 -9 37 -74 47 -203 32 l-61 -8 -65 68 c-56 58
-65 73 -70 113 -3 25 -1 57 4 70 5 13 9 34 9 47 0 27 18 39 88 61 70 21 84 18
127 -26 21 -22 47 -40 57 -40 10 0 27 -5 37 -12 23 -14 51 3 51 31 0 19 -75
93 -118 115 -72 37 -129 145 -123 231 2 39 44 108 93 156 37 36 45 39 95 39
30 0 74 -5 99 -11z m-159 -1405 c-3 -3 -12 -4 -19 -1 -8 3 -5 6 6 6 11 1 17
-2 13 -5z"/>
<path d="M2590 3089 c-14 -6 -47 -24 -73 -41 -40 -26 -48 -35 -45 -57 3 -23 7
-26 36 -23 17 1 41 11 52 22 15 15 33 20 75 20 34 0 55 -4 55 -11 0 -23 -73
-70 -87 -56 -2 3 -19 -1 -36 -8 -18 -7 -47 -10 -64 -8 -28 4 -34 1 -42 -18
-20 -53 31 -79 105 -54 24 8 64 15 88 15 36 0 49 6 84 40 45 42 51 68 30 117
-17 38 -27 47 -67 61 -40 14 -77 14 -111 1z"/>
<path d="M1897 2640 c-33 -39 -34 -65 -3 -111 19 -27 36 -39 70 -48 62 -15 80
-14 107 9 23 19 24 20 5 35 -11 8 -29 12 -41 9 -16 -4 -29 3 -49 27 -15 17
-25 34 -22 36 9 9 54 -6 71 -24 24 -24 51 -5 47 33 -5 43 -21 54 -93 60 -64 6
-66 6 -92 -26z"/>
<path d="M2691 2633 c-31 -26 -19 -58 22 -61 69 -4 106 -14 123 -33 22 -25 12
-34 -39 -35 -40 -1 -129 34 -142 56 -3 6 -20 10 -36 10 -36 0 -48 -24 -25 -49
9 -10 16 -27 16 -39 0 -15 14 -27 57 -47 48 -23 66 -27 115 -22 65 6 147 47
149 75 2 38 -3 77 -12 80 -5 2 -15 10 -22 17 -25 24 -96 55 -140 60 -33 4 -50
1 -66 -12z"/>
<path d="M2284 2542 c-44 -29 -43 -162 1 -162 8 0 15 -4 15 -9 0 -12 39 -26
65 -22 11 1 32 16 48 32 61 67 15 169 -75 169 -23 0 -48 -4 -54 -8z m91 -119
c0 -30 -39 -28 -53 2 -7 14 -12 33 -12 41 0 13 5 13 33 -5 17 -11 32 -28 32
-38z"/>
<path d="M2011 2177 c-53 -42 -79 -104 -59 -143 24 -49 82 -87 142 -92 48 -4
59 -1 101 28 66 45 81 96 38 132 -13 11 -17 11 -21 0 -9 -29 -60 -69 -96 -76
-47 -9 -68 6 -64 48 3 28 20 44 62 59 17 6 -6 47 -34 62 -27 14 -30 13 -69
-18z"/>
<path d="M2620 2187 c0 -19 29 -66 56 -89 19 -16 36 -45 42 -68 9 -38 8 -41
-24 -70 -19 -16 -38 -30 -43 -30 -18 0 -63 44 -81 80 -11 21 -27 45 -36 54
-43 44 -61 -56 -22 -124 24 -41 89 -90 120 -90 50 0 148 83 148 126 0 6 7 25
16 43 9 18 13 42 10 59 -8 33 -71 102 -94 102 -9 0 -34 3 -54 6 -21 4 -38 4
-38 1z"/>
<path d="M3475 2832 c-6 -4 -17 -23 -26 -42 -18 -38 -19 -33 62 -280 14 -44
76 -157 90 -166 11 -7 149 82 149 96 0 5 10 12 23 15 32 10 82 50 113 91 36
46 24 74 -42 99 -27 10 -67 33 -88 52 -22 18 -45 33 -51 33 -7 0 -20 9 -30 20
-10 11 -24 20 -32 20 -7 0 -13 4 -13 8 0 10 -83 48 -120 56 -14 3 -30 2 -35
-2z m140 -121 c22 -14 47 -30 55 -36 9 -5 31 -19 49 -30 54 -33 81 -56 81 -69
0 -21 -64 -73 -99 -81 -18 -4 -35 -13 -38 -21 -7 -18 -23 -18 -23 -1 0 8 -9
22 -20 32 -24 22 -54 99 -47 119 4 9 0 37 -8 63 -23 74 -26 72 50 24z"/>
<path d="M1157 2713 c-4 -3 -7 -13 -7 -22 0 -20 -57 -73 -125 -117 -29 -18
-55 -40 -58 -48 -12 -30 20 -80 65 -104 61 -32 83 -46 103 -62 29 -24 54 -22
61 5 4 16 12 24 23 23 13 -3 16 9 19 75 2 48 -2 84 -8 93 -7 7 -10 17 -7 21 9
15 -12 126 -25 134 -16 10 -32 11 -41 2z m16 -157 c10 -25 -15 -86 -35 -86
-10 0 -18 5 -18 10 0 6 -6 10 -13 10 -7 0 -18 5 -25 12 -10 10 -7 18 15 40 30
29 68 36 76 14z"/>
<path d="M1630 1274 c3 -209 9 -274 27 -281 8 -3 31 12 55 35 22 23 54 44 70
47 16 4 34 15 40 25 7 10 40 27 74 36 77 22 134 65 116 86 -6 8 -29 21 -51 28
-22 7 -57 28 -78 47 -21 19 -48 38 -60 43 -12 5 -27 25 -34 44 -9 25 -19 35
-33 35 -12 0 -45 3 -74 7 l-54 7 2 -159z m90 71 c7 -8 16 -15 21 -15 5 0 17
-8 28 -17 10 -10 39 -37 65 -61 25 -23 46 -46 46 -50 0 -4 -15 -13 -32 -21
-18 -7 -57 -24 -87 -37 -30 -14 -55 -23 -57 -22 -5 6 -8 238 -3 238 4 0 12 -7
19 -15z"/>
<path d="M3200 1423 c-8 -3 -33 -24 -55 -47 -50 -51 -113 -101 -148 -117 -40
-18 -35 -49 13 -85 22 -16 40 -35 40 -41 0 -7 5 -13 10 -13 6 0 21 -10 33 -23
35 -36 112 -95 128 -98 17 -4 59 10 59 19 0 4 5 34 10 67 15 90 14 248 -2 276
-13 23 -59 69 -68 68 -3 0 -12 -3 -20 -6z m26 -165 c8 -46 13 -168 6 -181 -4
-9 -44 12 -54 29 -5 6 -28 25 -53 41 -25 15 -45 34 -45 41 0 18 101 112 121
112 12 0 19 -12 25 -42z"/>
</g>
</svg>
