<?xml version="1.0" standalone="no"?>
<!DOCTYPE svg PUBLIC "-//W3C//DTD SVG 20010904//EN"
 "http://www.w3.org/TR/2001/REC-SVG-20010904/DTD/svg10.dtd">
<svg version="1.0" xmlns="http://www.w3.org/2000/svg"
 width="500.000000pt" height="500.000000pt" viewBox="0 0 500.000000 500.000000"
 preserveAspectRatio="xMidYMid meet">
<metadata>
Created by potrace 1.11, written by Peter Selinger 2001-2013
</metadata>
<g transform="translate(0.000000,500.000000) scale(0.100000,-0.100000)"
fill="#000000" stroke="none">
<path d="M3148 4521 c-32 -15 -68 -39 -81 -52 -32 -32 -124 -109 -131 -109 -6
0 -68 -63 -142 -142 -19 -21 -38 -38 -42 -38 -4 1 -23 26 -42 57 -19 31 -42
64 -50 73 -8 9 -29 43 -46 75 -18 32 -43 65 -58 74 -24 14 -27 14 -51 -9 -14
-13 -25 -28 -25 -33 0 -5 -11 -18 -24 -28 -14 -11 -32 -41 -42 -67 -10 -26
-32 -68 -50 -93 -17 -25 -35 -56 -39 -70 -7 -23 -22 -39 -37 -39 -4 0 -38 29
-75 65 -37 36 -70 65 -73 65 -3 0 -29 23 -59 50 -30 28 -58 50 -63 50 -5 0
-24 11 -42 25 -18 14 -37 25 -42 25 -5 0 -22 11 -38 25 -16 14 -47 30 -68 37
-33 10 -41 9 -58 -7 -32 -29 -28 -81 24 -279 14 -54 26 -104 26 -110 0 -6 -28
17 -62 51 -35 34 -88 83 -118 108 -54 46 -56 47 -110 41 -30 -4 -58 -12 -62
-19 -13 -19 0 -121 22 -172 37 -87 24 -97 -41 -30 -24 25 -50 45 -57 45 -7 0
-18 11 -24 25 -6 14 -15 25 -20 25 -4 0 -8 6 -9 13 -1 20 -67 69 -105 77 -29
7 -39 5 -55 -11 -10 -10 -19 -28 -19 -39 0 -11 -5 -20 -11 -20 -9 0 -10 -21
-6 -71 6 -70 6 -70 -13 -47 -29 38 -93 63 -131 52 -59 -17 -70 -45 -72 -185
-2 -115 7 -193 36 -309 6 -25 11 -47 11 -49 2 -8 -92 -32 -144 -36 -81 -7
-151 -29 -171 -53 -9 -12 -22 -22 -28 -22 -37 0 -11 -113 36 -159 58 -56 133
-161 133 -186 0 -8 -12 -17 -27 -20 -16 -4 -50 -12 -78 -20 -27 -7 -77 -17
-110 -20 -37 -4 -85 -19 -125 -40 -36 -18 -82 -39 -102 -48 -43 -19 -54 -53
-24 -80 10 -9 24 -17 29 -17 6 0 24 -10 41 -23 26 -19 92 -44 199 -73 37 -11
14 -22 -55 -26 -42 -2 -86 -11 -103 -20 -16 -9 -46 -24 -66 -33 -57 -26 -87
-95 -55 -128 8 -8 42 -23 75 -33 34 -10 61 -21 61 -26 0 -4 -19 -12 -42 -19
-24 -6 -58 -24 -76 -40 -18 -16 -37 -29 -43 -29 -5 0 -17 -16 -24 -35 -22 -51
-8 -75 62 -104 32 -13 77 -33 100 -43 23 -10 47 -18 52 -18 6 0 11 -4 11 -9 0
-16 -37 -22 -62 -10 -21 9 -36 6 -93 -18 -74 -31 -116 -72 -97 -96 6 -7 9 -23
5 -35 -3 -12 1 -32 9 -44 16 -24 155 -98 183 -98 10 0 29 -6 43 -14 15 -8 50
-21 77 -29 48 -15 116 -39 124 -44 5 -3 -73 -126 -114 -178 -16 -21 -34 -46
-40 -55 -5 -9 -20 -32 -32 -51 -13 -19 -23 -37 -23 -42 0 -10 52 -31 65 -27 6
2 37 7 70 11 33 4 107 14 165 23 126 19 236 21 246 4 11 -17 7 -109 -5 -121
-6 -6 -11 -44 -11 -83 0 -40 -4 -84 -10 -98 -13 -34 -22 -153 -14 -191 11 -57
27 -68 106 -72 l73 -4 35 42 c19 23 52 60 72 83 21 22 38 45 38 51 0 5 14 23
30 39 17 16 30 33 30 38 0 5 11 20 24 34 26 29 42 19 27 -18 -18 -43 -34 -209
-22 -221 6 -6 11 -18 11 -27 0 -20 58 -55 88 -52 24 2 162 132 162 152 0 6 9
19 20 30 11 11 20 26 20 33 0 8 11 36 25 63 l25 49 0 -45 c0 -26 -5 -51 -10
-56 -17 -17 -24 -222 -10 -273 14 -53 68 -111 102 -111 28 0 102 45 137 84 14
14 28 26 33 26 4 0 8 -26 8 -59 0 -116 68 -246 132 -251 58 -5 78 0 78 20 0
10 6 23 13 27 23 14 45 55 73 138 29 86 78 190 96 201 13 8 156 -143 164 -173
3 -12 15 -25 25 -28 10 -4 24 -15 29 -26 11 -20 45 -26 55 -9 3 6 15 10 26 10
15 0 19 7 19 33 0 18 8 42 18 53 10 10 35 49 57 86 21 38 42 68 46 68 4 0 18
-12 31 -28 12 -15 38 -38 56 -50 17 -13 32 -29 32 -35 0 -7 36 -48 79 -92 67
-68 89 -84 142 -103 97 -34 128 -28 157 28 17 34 3 134 -32 219 -14 36 -26 68
-26 73 0 18 49 6 93 -23 64 -42 121 -44 153 -4 17 21 20 32 12 42 -6 7 -8 23
-5 35 4 12 3 27 -2 32 -4 6 -11 20 -13 31 -3 11 -9 29 -14 39 -6 16 -4 18 12
12 41 -17 140 -25 176 -15 47 12 61 35 48 79 -13 46 -3 55 27 25 37 -37 106
-64 192 -76 86 -12 115 -7 136 24 12 19 13 29 1 67 -8 25 -23 65 -35 90 -11
25 -21 59 -21 76 0 16 -14 52 -31 80 -37 56 -112 215 -105 221 2 2 38 7 80 10
42 3 79 9 81 14 3 4 21 3 41 -3 43 -12 104 -3 104 16 0 17 -25 64 -93 178 -57
93 -64 125 -29 114 37 -12 248 12 325 37 82 26 112 50 122 97 11 52 -63 146
-145 184 -19 8 -42 20 -50 25 -8 5 -28 15 -45 21 l-30 13 35 8 c19 5 73 10
120 12 100 4 137 19 145 58 8 35 -19 94 -50 112 -13 6 -50 28 -82 47 l-58 35
50 7 c52 7 61 11 138 48 81 40 84 81 11 157 -41 43 -130 93 -151 86 -7 -3 -13
0 -13 6 0 6 18 14 40 17 22 4 43 11 46 15 3 5 17 9 31 9 24 0 80 20 113 41 8
5 27 14 42 20 14 6 33 25 42 44 14 28 14 36 2 60 -27 52 -62 82 -105 89 -23 3
-58 15 -79 26 -20 11 -45 20 -55 20 -15 0 -154 36 -215 55 -9 3 -7 17 8 57 12
29 30 79 41 112 11 32 27 69 35 81 9 14 14 39 12 62 -3 37 -4 38 -53 46 -27 4
-79 5 -115 1 -36 -4 -83 -8 -105 -9 -22 -1 -63 -5 -91 -9 -31 -5 -54 -4 -57 1
-4 6 2 33 12 61 11 28 22 74 26 102 4 27 11 52 16 56 5 3 9 35 8 72 -1 93 -29
146 -81 150 -46 4 -97 -22 -162 -83 -27 -25 -50 -45 -51 -45 0 0 -1 21 -2 48
-1 65 -27 122 -56 122 -13 0 -28 5 -34 11 -14 14 -50 -4 -76 -38 -10 -12 -40
-44 -67 -69 -27 -25 -56 -61 -64 -79 -16 -33 -43 -61 -51 -53 -3 2 9 25 25 50
49 74 67 226 31 266 -21 25 -75 30 -88 8 -4 -7 -29 -23 -55 -35 -26 -11 -50
-25 -53 -31 -12 -19 -26 -10 -20 13 8 26 32 85 46 110 5 10 12 53 16 96 9 126
-13 144 -119 92z m32 -88 c0 -27 -19 -91 -44 -153 -32 -76 -48 -122 -50 -143
-1 -9 -8 -23 -14 -29 -7 -7 -12 -18 -12 -26 0 -38 -114 -227 -131 -217 -3 3
-20 33 -38 67 -17 35 -44 86 -60 113 -37 63 -37 73 -3 114 45 56 203 211 255
252 52 42 97 52 97 22z m-1256 -103 c35 -27 75 -60 89 -72 119 -113 154 -149
185 -186 33 -40 34 -43 18 -65 -20 -28 -97 -143 -120 -180 -17 -27 -17 -28
-46 -10 -17 9 -30 25 -30 34 0 9 -7 20 -15 23 -9 3 -23 23 -32 43 -8 21 -28
66 -44 100 -16 34 -29 69 -29 78 0 8 -3 15 -8 15 -21 0 -80 211 -73 263 3 20
46 2 105 -43z m648 -66 c18 -31 38 -63 43 -72 32 -54 60 -98 65 -102 11 -10
64 -94 79 -126 9 -20 65 -90 115 -145 13 -14 27 -35 30 -47 4 -12 12 -22 17
-22 5 0 9 -12 9 -26 0 -17 6 -28 20 -31 22 -6 27 -31 8 -38 -7 -3 -116 -7
-243 -9 -126 -3 -326 -8 -442 -12 -190 -5 -213 -4 -213 10 0 8 9 20 20 26 11
6 20 17 20 25 0 8 5 15 10 15 6 0 14 10 19 23 5 13 21 41 35 62 14 21 26 44
26 53 0 8 12 26 26 41 14 14 44 50 65 79 31 41 45 52 60 47 17 -6 19 -1 19 35
0 26 9 54 25 80 14 22 25 42 25 45 0 6 9 19 74 108 15 20 33 37 41 37 7 0 28
-25 47 -56z m788 -84 c0 -12 -7 -35 -16 -51 -20 -39 -84 -237 -84 -260 0 -10
-4 -20 -9 -24 -5 -3 -13 -20 -16 -38 -4 -17 -13 -43 -20 -57 -7 -14 -19 -40
-25 -57 -11 -30 -16 -33 -56 -33 -46 0 -49 2 -101 69 -24 29 -25 35 -13 55 14
21 40 74 76 151 10 22 24 44 31 48 7 4 40 43 72 86 33 43 74 90 91 105 38 32
70 34 70 6z m-1796 -14 c15 -7 61 -44 103 -82 41 -38 87 -76 102 -85 14 -9 74
-66 132 -126 58 -61 112 -112 119 -115 20 -6 -3 -59 -45 -99 -29 -28 -40 -32
-104 -36 -40 -3 -79 -2 -88 1 -14 6 -14 8 1 25 16 18 16 21 -5 57 -12 22 -40
58 -63 80 -22 23 -45 48 -51 55 -30 41 -65 100 -65 108 0 6 -8 15 -19 20 -10
6 -21 25 -24 43 -3 18 -12 63 -20 101 -7 37 -11 67 -7 67 4 0 20 -6 34 -14z
m-284 -76 c11 -12 108 -80 114 -80 12 0 86 -63 86 -72 0 -5 18 -28 40 -50 22
-23 40 -45 40 -50 0 -4 24 -42 53 -83 74 -108 88 -133 77 -140 -9 -5 -121 -15
-225 -19 -16 0 -33 -5 -36 -10 -13 -17 -35 2 -49 43 -7 22 -21 48 -32 57 -10
10 -18 25 -18 35 0 10 -4 21 -10 24 -5 3 -10 15 -10 26 0 11 -7 31 -16 44 -9
13 -13 28 -10 33 3 5 -3 22 -13 39 -10 16 -22 45 -26 64 -4 19 -16 52 -27 74
-16 32 -17 46 -9 67 10 26 12 27 38 16 15 -7 30 -15 33 -18z m2390 0 c0 -5 -7
-10 -16 -10 -8 0 -12 5 -9 10 3 6 10 10 16 10 5 0 9 -4 9 -10z m-80 -7 c0 -5
-7 -53 -16 -108 -18 -115 -60 -259 -80 -279 -13 -14 -158 -32 -211 -27 -21 2
-15 35 12 75 14 20 25 39 25 42 0 3 20 30 45 61 25 30 45 60 45 67 0 7 10 18
23 25 12 8 48 44 80 82 53 63 77 82 77 62z m302 -93 c11 -29 17 -74 17 -125 0
-69 -3 -87 -27 -129 -25 -45 -30 -49 -72 -52 -25 -2 -52 -4 -60 -5 -8 -1 -52
-1 -97 -1 -93 2 -99 9 -57 57 15 17 38 54 51 82 13 29 36 62 50 73 15 12 34
34 44 49 9 16 34 45 54 65 49 49 74 46 97 -14z m-2781 -21 c24 -29 59 -86 77
-128 18 -42 37 -85 42 -96 21 -44 60 -149 60 -160 0 -11 -92 -22 -234 -30 -5
0 -11 16 -13 35 -2 19 -11 57 -20 83 -17 56 -44 253 -36 276 19 62 26 71 52
71 20 0 39 -13 72 -51z m3174 -329 c4 -6 -10 -54 -30 -108 -34 -90 -54 -133
-124 -267 -15 -27 -38 -77 -51 -110 -47 -113 -52 -119 -93 -126 -20 -3 -39 -8
-41 -10 -1 -2 0 -29 3 -59 6 -51 2 -70 -21 -110 -4 -8 -17 -34 -28 -57 -10
-23 -28 -48 -39 -55 -12 -7 -21 -23 -21 -35 0 -13 -4 -23 -8 -23 -5 0 -16 -16
-25 -35 -9 -19 -22 -35 -28 -35 -16 0 -59 48 -59 65 0 8 -5 17 -10 20 -20 12
-77 110 -176 303 -35 68 -73 135 -84 149 -11 14 -20 30 -20 36 0 6 -17 33 -39
61 -21 28 -44 62 -51 76 -7 14 -19 29 -26 33 -8 4 -14 12 -14 18 0 5 -24 41
-52 78 -29 38 -62 84 -72 102 l-19 32 30 -6 c17 -3 35 -1 42 6 7 7 62 12 154
13 78 1 153 3 167 4 14 2 49 0 78 -2 29 -2 79 -1 110 4 31 5 95 10 142 12 47
3 121 11 165 19 96 17 231 21 240 7z m-1264 -49 c9 -1 59 -49 59 -56 0 -3 11
-18 24 -32 13 -14 32 -43 42 -64 9 -22 21 -39 26 -39 4 0 8 -4 8 -9 0 -5 30
-53 66 -108 36 -54 71 -111 79 -128 7 -16 24 -43 39 -58 14 -15 26 -33 26 -38
0 -6 28 -49 61 -97 34 -47 73 -106 86 -131 14 -25 37 -62 52 -81 44 -59 71
-100 71 -110 0 -5 9 -24 19 -42 29 -51 36 -112 15 -136 -9 -11 -33 -50 -53
-86 -41 -75 -135 -214 -201 -298 -86 -111 -107 -143 -114 -180 -4 -21 -11 -38
-16 -38 -5 0 -23 -27 -40 -59 -53 -99 -58 -101 -201 -106 -68 -3 -151 -7 -184
-10 -33 -4 -80 -8 -105 -10 -25 -2 -79 -7 -120 -10 -41 -4 -84 -6 -95 -6 -11
1 -47 -3 -80 -9 -33 -5 -118 -12 -190 -15 -71 -3 -157 -10 -190 -14 -33 -4
-76 -6 -95 -5 -86 7 -95 12 -155 87 -33 39 -69 83 -82 97 -67 74 -93 106 -93
113 0 5 -15 29 -33 54 -46 65 -132 190 -171 248 -18 28 -40 56 -49 64 -10 7
-17 22 -17 32 0 10 -4 20 -9 24 -6 3 -24 31 -42 63 -18 31 -48 77 -66 101 -18
24 -33 49 -33 56 0 7 13 26 30 43 16 17 39 51 50 75 12 24 39 59 60 77 22 19
40 41 40 49 0 9 9 22 20 29 11 7 20 21 20 32 0 10 9 24 20 30 11 6 26 24 35
39 8 16 20 35 27 43 36 38 95 116 106 141 6 15 19 30 27 33 9 4 22 19 31 35 8
16 20 29 27 29 6 0 23 16 36 36 13 19 35 45 48 57 12 12 23 26 23 31 0 4 12
24 28 42 15 19 39 49 53 67 15 17 37 51 49 75 12 23 25 44 29 46 7 4 388 14
783 20 93 1 171 5 174 8 3 3 13 5 22 3 9 -2 20 -4 23 -4z m-1141 -40 c0 -6
-13 -30 -30 -54 -16 -25 -30 -50 -30 -56 0 -6 -6 -11 -13 -11 -13 0 -117 -124
-151 -182 -30 -51 -59 -92 -72 -103 -7 -5 -50 -66 -96 -135 -47 -69 -99 -145
-117 -170 -17 -25 -38 -55 -46 -67 -8 -13 -23 -35 -32 -50 -10 -14 -28 -42
-39 -62 -26 -43 -40 -49 -47 -19 -4 13 -15 32 -25 43 -15 16 -129 189 -177
267 -5 9 -40 61 -76 115 -81 120 -90 138 -83 157 3 9 -3 20 -15 28 -12 7 -21
17 -21 22 0 6 -20 40 -45 77 -25 37 -45 72 -45 77 0 6 17 10 38 10 20 0 78 9
127 21 50 11 140 25 200 31 61 6 151 15 200 20 50 5 126 13 170 19 44 5 120
12 169 15 49 3 92 8 94 11 10 9 162 5 162 -4z m2560 -303 c147 -47 214 -74
224 -91 21 -34 -45 -70 -229 -126 -16 -5 -101 -12 -187 -16 -181 -8 -182 -8
-127 72 16 25 48 81 70 125 l40 79 57 -6 c31 -4 100 -20 152 -37z m-3533 -288
c12 -19 37 -56 55 -82 38 -53 42 -74 13 -70 -11 1 -56 -3 -101 -9 -103 -15
-232 0 -329 37 -86 33 -103 47 -85 68 7 9 21 16 32 16 10 0 37 9 58 20 22 11
69 26 105 34 37 8 69 17 73 20 3 4 40 6 81 4 74 -3 76 -4 98 -38z m3363 -44
c62 -6 120 -18 120 -25 0 -4 27 -15 60 -25 33 -10 60 -23 60 -29 0 -17 -50
-57 -79 -64 -14 -3 -41 -14 -60 -24 -31 -16 -55 -18 -223 -14 -103 2 -192 6
-198 10 -9 6 30 78 78 142 30 41 70 46 242 29z m-3194 -203 c26 -37 74 -128
74 -141 0 -17 -121 -25 -212 -15 -64 8 -90 7 -115 -4 -89 -37 -379 -10 -409
38 -9 15 26 49 50 49 12 0 35 7 51 16 17 8 62 19 101 23 39 5 79 13 90 18 18
10 183 25 277 25 26 0 49 4 53 9 9 15 19 10 40 -18z m2962 -63 c54 -6 104 -13
112 -16 45 -17 175 -44 190 -39 18 6 90 -55 90 -75 0 -6 -21 -20 -46 -32 -57
-25 -185 -37 -390 -38 l-151 0 -13 40 c-11 34 -11 42 4 64 9 14 16 32 16 40 0
23 58 79 76 72 9 -3 59 -11 112 -16z m-3140 -151 c-7 -5 -24 -9 -38 -8 l-25 0
24 13 c28 15 64 10 39 -5z m216 -46 c-15 -27 -44 -70 -66 -98 -21 -27 -55 -75
-75 -105 -20 -30 -41 -58 -47 -63 -13 -9 -58 1 -67 15 -4 7 -13 7 -26 -1 -23
-12 -117 -2 -227 23 -73 17 -258 103 -264 123 -7 25 154 74 228 69 25 -1 60 1
78 6 32 9 344 -6 384 -18 13 -4 21 2 28 20 5 14 16 26 23 26 8 0 19 11 25 25
6 14 17 25 23 25 6 0 -1 -21 -17 -47z m127 -10 c6 -16 19 -37 29 -48 10 -11
35 -51 55 -90 20 -38 55 -93 76 -122 21 -29 39 -55 39 -58 0 -3 17 -28 38 -55
20 -27 59 -79 86 -117 28 -37 55 -72 61 -78 5 -5 22 -29 37 -52 31 -47 74 -93
88 -93 6 0 10 -10 10 -23 0 -13 11 -34 25 -47 14 -13 25 -29 25 -35 0 -17 -55
-27 -84 -16 -13 5 -50 7 -82 5 -33 -3 -84 -6 -114 -9 -30 -2 -67 -7 -82 -10
-18 -5 -28 -3 -28 4 0 8 -43 9 -147 5 -173 -8 -172 -8 -243 -5 -30 1 -95 -1
-145 -4 -101 -6 -197 -6 -204 1 -2 2 7 25 21 51 14 27 29 59 33 73 4 14 18 39
31 56 12 17 26 43 29 57 4 14 20 41 36 59 16 18 52 71 81 118 48 76 57 85 86
88 39 4 50 24 32 57 -11 21 -7 34 53 137 58 101 118 178 140 178 4 0 12 -12
18 -27z m2532 -55 c8 -18 25 -55 37 -83 12 -27 38 -81 57 -120 19 -38 39 -91
44 -117 7 -31 17 -49 29 -53 20 -6 56 -57 90 -126 12 -24 30 -60 40 -79 l18
-35 -142 -17 c-77 -9 -160 -22 -182 -27 -23 -6 -132 -13 -242 -16 l-201 -6 12
28 c7 15 25 48 42 73 16 25 41 70 57 100 28 55 80 141 168 280 26 41 56 92 66
113 9 22 23 41 31 44 7 3 13 11 13 19 0 20 23 54 36 54 7 0 19 -15 27 -32z
m344 -43 c30 -4 80 -15 112 -26 31 -10 66 -19 78 -19 12 0 25 -4 28 -10 3 -5
13 -10 21 -10 22 0 84 -71 84 -97 0 -21 -47 -65 -100 -93 -31 -17 -296 -16
-316 1 -12 10 -103 189 -118 233 -4 11 -2 22 3 25 12 8 137 5 208 -4z m-3494
-237 c92 -7 132 -6 142 2 14 12 93 11 101 -1 4 -8 -58 -126 -110 -207 -20 -33
-31 -42 -44 -37 -9 4 -37 10 -61 12 -25 3 -56 13 -69 24 -14 10 -35 19 -47 19
-12 0 -34 9 -48 20 -14 11 -31 20 -39 20 -7 0 -28 9 -46 20 -18 11 -39 20 -47
20 -15 0 -45 37 -45 55 0 15 59 49 95 55 47 8 81 7 218 -2z m3184 -474 c66
-73 113 -134 113 -148 0 -8 5 -18 10 -21 6 -3 10 -15 10 -25 0 -10 8 -23 17
-29 14 -7 19 -26 21 -90 6 -116 0 -131 -46 -131 -49 0 -81 21 -177 116 -89 88
-145 156 -145 176 0 7 -13 27 -28 43 -15 17 -40 46 -55 66 -30 39 -24 49 28
49 12 0 27 6 33 13 7 8 41 12 100 12 88 0 91 -1 119 -31z m-669 -18 c-10 -7
-18 -20 -18 -28 0 -9 -9 -27 -21 -42 -11 -15 -18 -33 -15 -42 7 -19 -20 -72
-76 -149 -24 -33 -78 -112 -121 -176 -45 -68 -85 -119 -97 -122 -14 -4 -20
-13 -20 -32 0 -27 -56 -125 -71 -125 -4 0 -13 -16 -19 -35 -10 -30 -34 -55
-53 -55 -3 0 -29 30 -59 67 -68 86 -152 173 -166 173 -7 0 -12 4 -12 8 0 5
-18 28 -41 53 -22 24 -61 71 -87 104 -25 33 -50 65 -54 70 -5 6 -22 26 -38 45
-16 19 -30 41 -30 48 0 8 -29 42 -65 77 -36 34 -65 69 -65 78 0 11 13 17 43
21 23 3 83 10 132 16 50 6 133 12 185 14 52 2 103 7 113 11 9 4 23 3 30 -3 7
-7 29 -7 57 -2 25 4 92 9 150 9 58 1 161 8 230 15 69 8 143 14 165 14 35 1 38
0 23 -12z m288 -28 c16 -23 48 -61 72 -85 23 -23 42 -48 42 -56 0 -7 11 -35
24 -63 54 -113 65 -186 30 -215 -21 -17 -107 52 -196 157 -177 211 -174 203
-138 261 16 27 26 32 67 36 26 2 53 4 59 5 6 1 24 -17 40 -40z m-1636 -61 c0
-23 -34 -133 -47 -152 -7 -11 -13 -27 -13 -37 0 -10 -5 -18 -10 -18 -6 0 -15
-12 -20 -27 -16 -45 -34 -76 -52 -95 -10 -10 -18 -25 -18 -33 0 -19 -40 -95
-62 -117 -9 -9 -30 -24 -46 -32 -40 -21 -45 -7 -27 79 8 36 14 86 13 109 0 24
5 83 11 132 7 49 14 108 17 131 6 48 8 49 104 58 36 4 66 8 68 10 8 8 82 1 82
-8z m-350 -32 c0 -20 -51 -169 -60 -175 -4 -3 -17 -24 -29 -47 -11 -23 -25
-44 -31 -48 -5 -3 -10 -14 -10 -23 0 -9 -14 -30 -30 -47 -17 -16 -36 -36 -43
-44 -44 -50 -90 -91 -102 -91 -9 0 -15 10 -15 26 0 14 -4 34 -10 44 -10 19 9
182 28 230 25 64 33 104 30 138 l-3 37 100 5 c55 3 117 6 138 7 26 1 37 -2 37
-12z m494 -35 c120 -111 118 -109 111 -148 -8 -48 -55 -184 -66 -197 -5 -5 -9
-14 -9 -21 0 -6 -8 -29 -17 -50 -9 -22 -17 -41 -18 -44 -1 -3 -7 -18 -13 -33
-7 -16 -10 -32 -7 -36 2 -5 -18 -33 -45 -62 -46 -51 -49 -53 -66 -37 -13 13
-18 33 -17 75 1 94 10 183 27 258 8 39 20 95 27 125 17 86 52 190 62 190 6 0
19 -9 31 -20z m1279 -52 c8 -13 34 -44 58 -69 52 -55 64 -72 85 -119 9 -19 20
-37 24 -40 9 -6 50 -95 50 -109 0 -5 7 -16 15 -25 14 -14 13 -18 -7 -41 -46
-53 -56 -46 -272 197 -74 83 -77 88 -64 112 7 14 24 45 36 70 27 51 51 59 75
24z m-2113 -43 c0 -8 -4 -15 -10 -15 -5 0 -10 7 -10 15 0 8 5 15 10 15 6 0 10
-7 10 -15z m1946 -182 c47 -45 81 -103 114 -193 17 -47 35 -89 41 -95 5 -5 9
-19 9 -32 0 -12 5 -42 12 -66 15 -57 5 -97 -24 -97 -27 0 -118 60 -118 78 0 7
-7 15 -15 19 -9 3 -22 18 -30 32 -7 15 -39 54 -69 86 -31 32 -56 66 -56 76 0
9 -7 20 -15 23 -14 5 -14 9 -1 33 8 16 23 37 35 47 12 11 21 26 21 35 0 12 42
62 66 80 1 1 15 -11 30 -26z m-812 -50 c31 -32 56 -61 56 -65 0 -4 6 -8 14 -8
11 0 14 -11 11 -47 -5 -50 -32 -173 -46 -208 -4 -11 -15 -45 -25 -75 -15 -48
-75 -130 -95 -130 -4 0 -22 30 -40 68 -31 60 -34 75 -33 147 1 107 10 193 22
208 5 7 13 32 17 57 9 57 36 108 57 110 3 0 31 -26 62 -57z"/>
<path d="M2473 4024 c-21 -9 -39 -28 -53 -56 -25 -53 -42 -81 -60 -103 -25
-30 -22 -54 6 -61 16 -4 23 -12 20 -20 -3 -7 0 -16 6 -20 14 -9 148 -5 162 4
6 3 29 8 51 9 75 5 104 13 110 33 8 25 -1 40 -23 40 -9 0 -32 17 -50 38 -46
52 -50 57 -73 97 -18 30 -49 57 -61 54 -2 0 -17 -7 -35 -15z m97 -172 c0 -27
-21 -33 -64 -20 -42 13 -43 21 -15 67 l21 34 29 -31 c16 -17 29 -40 29 -50z"/>
<path d="M3810 3473 c-94 -18 -235 -71 -261 -99 l-21 -22 29 -17 c32 -19 69
-75 96 -145 32 -84 71 -145 92 -145 11 0 26 -4 33 -8 14 -10 62 17 62 34 0 6
13 40 30 76 16 35 33 76 36 91 4 15 12 34 19 42 6 8 17 29 23 45 21 60 23 85
6 110 -9 14 -13 25 -9 25 4 0 2 7 -5 15 -14 17 -28 17 -130 -2z m84 -59 c11
-27 7 -54 -9 -60 -8 -4 -15 -10 -15 -14 0 -5 -18 -36 -41 -70 -31 -48 -40 -69
-36 -90 6 -27 -7 -50 -27 -50 -15 1 -86 174 -86 209 0 31 19 42 103 56 20 3
37 10 37 15 0 5 12 11 28 13 15 2 30 5 33 6 4 0 10 -6 13 -15z"/>
<path d="M2585 3263 c-57 -11 -125 -36 -136 -49 -6 -8 -16 -14 -22 -14 -21 0
-77 -46 -88 -72 -13 -31 -30 -35 -52 -14 -23 23 -184 106 -206 106 -36 0 -114
-22 -156 -43 -64 -33 -138 -119 -158 -183 -9 -30 -17 -66 -17 -80 0 -32 63
-165 106 -225 19 -26 34 -49 34 -52 0 -3 -10 -7 -23 -11 -12 -3 -48 -30 -80
-59 -101 -96 -135 -215 -87 -304 25 -48 147 -183 164 -183 8 0 19 -7 26 -14 6
-8 34 -22 62 -32 47 -15 53 -15 86 0 19 10 54 33 77 52 43 35 65 43 65 23 0
-7 9 -43 21 -81 17 -57 29 -78 71 -119 27 -27 62 -52 77 -55 14 -3 34 -9 43
-15 24 -13 40 -11 94 7 92 31 204 121 233 187 26 58 49 127 53 156 3 22 10 16
57 -47 30 -40 61 -72 68 -72 7 0 13 -4 13 -8 0 -13 85 -52 125 -59 20 -3 38
-10 41 -14 3 -5 18 -9 34 -9 23 0 33 7 45 31 9 16 26 41 37 55 37 42 50 93 51
214 2 107 0 119 -26 175 -15 33 -31 62 -35 65 -4 3 -17 23 -29 46 l-22 41 55
22 c68 29 105 73 122 145 21 89 -13 178 -109 283 -60 66 -125 81 -250 57 -55
-10 -90 -22 -102 -35 -24 -25 -37 -16 -37 25 0 25 -11 44 -47 82 -76 79 -107
92 -178 77z m68 -90 c41 -6 50 -18 73 -91 21 -70 18 -84 -25 -126 -21 -21 -41
-50 -44 -65 -2 -14 -7 -34 -12 -43 -5 -13 0 -21 19 -30 25 -11 30 -9 71 34 23
25 50 59 59 76 37 72 145 130 231 123 39 -2 108 -44 156 -93 36 -37 39 -45 39
-95 0 -78 -18 -141 -46 -160 -27 -17 -103 -11 -161 13 -45 19 -34 32 27 32 69
1 86 8 100 42 28 68 -4 150 -72 186 -39 20 -61 17 -87 -10 -28 -30 -21 -71 10
-61 20 7 89 -29 89 -45 0 -26 -59 -53 -104 -47 -10 1 -23 -6 -29 -15 -9 -13
-7 -21 7 -37 26 -29 12 -26 -51 9 -29 17 -61 30 -71 30 -47 0 -58 -59 -14 -79
15 -7 43 -20 62 -29 50 -23 84 -50 177 -139 88 -84 97 -102 109 -228 3 -27 7
-56 9 -63 8 -23 -14 -111 -37 -147 -25 -37 -42 -44 -55 -20 -7 12 -14 13 -40
3 -60 -22 -143 38 -203 150 -16 30 -30 66 -30 79 0 13 -4 23 -8 23 -16 0 -68
203 -57 221 4 5 -8 24 -26 41 -30 31 -32 31 -45 13 -8 -10 -14 -27 -14 -37 0
-10 -5 -27 -12 -38 -10 -15 -8 -31 10 -82 28 -82 46 -199 39 -269 -9 -101
-104 -247 -151 -235 -11 3 -34 -4 -52 -14 -49 -31 -112 -35 -151 -11 -55 34
-68 65 -68 157 0 70 3 87 23 111 28 35 97 169 105 204 5 19 1 34 -11 49 l-19
23 -21 -23 c-12 -13 -22 -27 -22 -32 0 -9 -110 -141 -122 -146 -4 -2 -8 -8 -8
-14 0 -21 -99 -107 -137 -117 -58 -16 -123 -13 -172 10 -47 21 -115 87 -132
127 -36 90 55 250 170 299 28 12 42 12 76 3 86 -24 151 5 111 49 -14 15 -31
21 -61 21 -49 0 -119 26 -110 40 4 6 -1 13 -9 16 -8 3 -25 35 -37 71 -37 112
-13 229 63 305 24 24 91 58 114 58 21 0 94 -48 94 -61 0 -8 12 -10 34 -6 27 4
38 1 53 -16 36 -40 46 -82 40 -169 -6 -97 5 -125 47 -114 13 3 27 14 30 24 8
27 9 111 1 179 l-8 61 68 66 c69 65 103 80 160 69 11 -2 37 -7 58 -10z m-838
-232 c3 -5 1 -12 -5 -16 -5 -3 -10 1 -10 9 0 18 6 21 15 7z"/>
<path d="M2529 3106 c-27 -19 -39 -36 -48 -70 -15 -62 -14 -80 9 -107 19 -23
20 -24 35 -5 8 11 12 29 9 41 -4 16 3 29 27 49 17 15 34 25 36 22 9 -9 -6 -54
-24 -71 -23 -24 -5 -51 33 -48 41 3 54 22 60 94 6 64 6 66 -26 92 -39 33 -65
34 -111 3z"/>
<path d="M2045 3053 c-51 -13 -105 -96 -105 -164 0 -30 8 -53 27 -78 53 -73
84 -85 124 -51 20 17 22 21 9 29 -58 38 -70 55 -77 106 -8 64 70 78 96 18 16
-37 27 -40 58 -18 34 24 34 51 0 94 -25 31 -96 77 -110 70 -1 -1 -11 -3 -22
-6z"/>
<path d="M2408 2743 c-9 -2 -20 -13 -23 -24 -4 -10 -10 -19 -15 -19 -12 0 -25
-40 -21 -65 5 -33 58 -75 96 -75 41 0 92 28 99 55 8 29 7 88 -2 101 -19 29
-81 41 -134 27z m53 -85 c-23 -37 -54 -44 -59 -12 -3 21 26 42 61 43 18 1 18
-1 -2 -31z"/>
<path d="M2868 2540 c-25 -15 -31 -60 -13 -109 8 -24 15 -62 15 -86 0 -35 6
-48 41 -85 37 -39 44 -42 80 -37 58 8 84 29 99 81 16 59 8 99 -37 169 -31 49
-41 58 -62 55 -23 -3 -26 -7 -23 -36 1 -17 11 -41 22 -52 15 -15 20 -33 20
-75 0 -34 -4 -55 -11 -55 -23 0 -70 73 -56 87 3 2 -1 19 -8 36 -7 18 -11 45
-8 61 4 21 1 33 -12 43 -22 15 -25 15 -47 3z"/>
<path d="M1938 2487 c-39 -23 -88 -89 -88 -119 0 -50 83 -148 126 -148 6 0 25
-7 43 -16 43 -21 80 -11 123 34 34 36 58 108 43 132 -9 14 -57 -11 -87 -46
-16 -19 -45 -36 -68 -42 -38 -9 -41 -8 -70 24 -16 19 -30 38 -30 43 0 18 44
63 80 81 21 11 45 27 54 36 44 43 -59 61 -126 21z"/>
<path d="M2520 2405 c-7 -8 -23 -15 -35 -15 -19 0 -29 -12 -50 -57 -23 -48
-27 -66 -22 -115 6 -65 47 -147 75 -149 38 -2 77 3 80 12 2 5 10 15 17 22 24
25 54 94 59 140 7 54 -16 91 -50 81 -18 -5 -22 -15 -27 -70 -8 -100 -61 -144
-63 -53 -1 43 22 104 53 141 19 21 13 72 -8 76 -9 2 -22 -4 -29 -13z"/>
<path d="M1037 3362 c-53 -5 -57 -25 -12 -70 20 -20 44 -54 52 -74 8 -20 20
-39 27 -41 7 -3 21 -35 32 -70 10 -36 30 -80 45 -98 23 -29 29 -31 43 -20 9 7
21 31 28 52 6 21 27 56 45 76 19 21 38 48 43 60 5 12 25 27 44 34 25 9 35 19
35 33 0 12 3 45 7 74 l7 53 -179 -3 c-99 -2 -196 -4 -217 -6z m323 -61 c0 -5
-7 -14 -15 -21 -8 -7 -15 -16 -15 -21 0 -5 -8 -17 -17 -28 -10 -10 -37 -39
-61 -65 -23 -25 -46 -46 -50 -46 -4 0 -13 15 -21 33 -7 17 -24 56 -37 86 -13
29 -24 55 -24 57 0 2 51 5 113 7 61 1 115 4 120 5 4 1 7 -2 7 -7z"/>
<path d="M1193 2014 c-8 -20 -51 -64 -63 -64 -6 0 -10 -5 -10 -10 0 -6 -10
-21 -23 -33 -36 -35 -95 -112 -98 -128 -7 -33 12 -57 49 -63 125 -21 281 -23
313 -4 70 40 76 85 17 142 -53 51 -103 113 -119 149 -14 31 -56 38 -66 11z
m57 -146 c63 -66 64 -84 8 -94 -46 -8 -168 -12 -181 -6 -9 4 12 44 29 54 6 5
25 28 41 53 15 25 34 45 41 45 7 0 35 -23 62 -52z"/>
<path d="M3667 2142 c-10 -10 -17 -24 -17 -31 0 -6 -10 -22 -23 -34 -37 -35
-118 -157 -112 -167 3 -5 1 -18 -5 -29 -8 -16 -7 -22 8 -30 20 -11 159 -18
168 -9 3 3 26 -1 51 -8 26 -8 50 -11 55 -6 4 4 11 30 14 56 6 40 4 50 -10 58
-22 12 -54 87 -67 152 -12 65 -33 81 -62 48z m23 -116 c0 -7 9 -34 21 -60 11
-25 17 -51 14 -56 -7 -11 -74 -14 -99 -4 -9 3 -16 12 -16 20 0 13 33 78 52
102 14 16 28 15 28 -2z"/>
<path d="M2635 1530 c-49 -16 -106 -35 -125 -41 -43 -14 -157 -76 -166 -90 -7
-13 80 -145 101 -153 8 -3 15 -13 15 -22 0 -23 42 -77 86 -110 46 -36 74 -24
98 42 10 27 26 56 37 65 10 9 27 35 39 57 12 22 28 46 36 53 8 6 14 18 14 25
0 8 4 14 9 14 11 0 46 75 54 118 6 29 3 35 -26 52 -43 26 -65 25 -172 -10z
m109 -92 c-8 -14 -52 -83 -69 -108 -5 -9 -19 -31 -30 -49 -33 -54 -56 -81 -69
-81 -21 0 -73 64 -81 99 -4 18 -13 35 -21 38 -18 7 -18 23 0 23 7 0 19 7 27
16 23 28 73 47 132 50 32 2 66 8 75 14 24 14 45 12 36 -2z"/>
</g>
</svg>
